<svg xmlns="http://www.w3.org/2000/svg" width="174.054" height="44.481" viewBox="0 0 174.054 44.481">
  <g id="PayPal" transform="translate(0 -187.6)">
    <path id="Path_718" data-name="Path 718" d="M361.843,221.2h-9.393a1.835,1.835,0,0,0-1.381,1.105L347.2,246.617a.733.733,0,0,0,.829.829H353a.733.733,0,0,0,.829-.829l1.105-6.907a1.264,1.264,0,0,1,1.381-1.105h3.039q9.532,0,10.775-9.117a7.242,7.242,0,0,0-1.105-6.078,11.144,11.144,0,0,0-7.183-2.21m1.105,9.117c-.553,3.315-3.039,3.315-5.526,3.315h-1.658l1.105-6.354c0-.276.276-.553.829-.553h.553c1.658,0,3.315,0,4.144,1.105.553.276.553,1.105.553,2.487" transform="translate(-227.296 -21.996)" fill="#139ad6"/>
    <path id="Path_719" data-name="Path 719" d="M165.843,221.2h-9.393a1.836,1.836,0,0,0-1.381,1.105L151.2,246.617a.733.733,0,0,0,.829.829h4.42a1.836,1.836,0,0,0,1.381-1.105l1.105-6.631a1.264,1.264,0,0,1,1.381-1.105h3.039q9.532,0,10.775-9.117a7.242,7.242,0,0,0-1.105-6.078c-1.658-1.381-3.868-2.21-7.183-2.21m1.105,9.117c-.553,3.315-3.039,3.315-5.526,3.315h-1.381l1.105-6.354c0-.276.276-.553.829-.553h.553c1.658,0,3.315,0,4.144,1.105a2.959,2.959,0,0,1,.276,2.487" transform="translate(-98.983 -21.996)" fill="#263b80"/>
    <path id="Path_720" data-name="Path 720" d="M235.345,245.753h-4.42c-.276,0-.829.276-.829.553l-.276,1.381-.276-.553c-1.105-1.381-3.039-1.934-5.249-1.934a10.616,10.616,0,0,0-10.222,9.117,8.235,8.235,0,0,0,1.658,6.907c1.381,1.658,3.315,2.21,5.8,2.21a8.831,8.831,0,0,0,6.354-2.486l-.276,1.381a.733.733,0,0,0,.829.829h4.144a1.836,1.836,0,0,0,1.381-1.105l2.486-15.471c-.276-.276-.829-.829-1.105-.829m-6.354,8.841a5.344,5.344,0,0,1-5.249,4.42,4.418,4.418,0,0,1-3.039-1.105,5.892,5.892,0,0,1-.829-3.315,4.928,4.928,0,0,1,8.012-3.315,4.823,4.823,0,0,1,1.105,3.315" transform="translate(-140.029 -37.708)" fill="#263b80"/>
    <path id="Path_721" data-name="Path 721" d="M430.545,245.753h-4.42c-.276,0-.829.276-.829.553l-.276,1.381-.276-.553c-1.105-1.381-3.039-1.934-5.249-1.934a10.616,10.616,0,0,0-10.222,9.117,8.235,8.235,0,0,0,1.658,6.907c1.381,1.658,3.315,2.21,5.8,2.21a8.831,8.831,0,0,0,6.354-2.486l-.276,1.381a.733.733,0,0,0,.829.829h4.144a1.836,1.836,0,0,0,1.381-1.105l2.487-15.471c-.276-.276-.553-.829-1.105-.829m-6.354,8.841a5.344,5.344,0,0,1-5.249,4.42,4.418,4.418,0,0,1-3.039-1.105,5.892,5.892,0,0,1-.829-3.315,4.928,4.928,0,0,1,8.012-3.315,3.171,3.171,0,0,1,1.105,3.315" transform="translate(-267.818 -37.708)" fill="#139ad6"/>
    <path id="Path_722" data-name="Path 722" d="M305.273,246.8h-4.7a1.435,1.435,0,0,0-1.105.553l-6.078,9.393-2.763-8.841a1.276,1.276,0,0,0-1.381-.829h-4.42c-.553,0-.829.553-.829,1.105l4.973,14.643-4.7,6.631c-.276.553,0,1.381.553,1.381h4.42a1.435,1.435,0,0,0,1.105-.553l15.2-21.826c.829-.829.276-1.658-.276-1.658" transform="translate(-185.922 -38.756)" fill="#263b80"/>
    <path id="Path_723" data-name="Path 723" d="M479.068,222.347,475.2,247.212a.733.733,0,0,0,.829.829H479.9a1.836,1.836,0,0,0,1.381-1.105l3.868-24.312a.733.733,0,0,0-.829-.829H479.9c-.276-.276-.553,0-.829.553" transform="translate(-311.092 -22.315)" fill="#139ad6"/>
    <path id="Path_724" data-name="Path 724" d="M31.772,190.915c-1.934-2.21-5.526-3.315-10.5-3.315H7.459a2.37,2.37,0,0,0-1.934,1.658L0,225.45a1.264,1.264,0,0,0,1.105,1.381H9.67l2.21-13.538v.553a2.37,2.37,0,0,1,1.934-1.658h4.144c8.012,0,14.09-3.315,16.024-12.432v-.829h0c.276-3.592-.276-5.8-2.21-8.012" fill="#263b80"/>
    <path id="Path_725" data-name="Path 725" d="M50.465,220.4h0v.829c-1.934,9.393-8.012,12.432-16.024,12.432H30.3a2.37,2.37,0,0,0-1.934,1.658L25.6,252.172a1.012,1.012,0,0,0,1.105,1.105h7.183a1.547,1.547,0,0,0,1.658-1.381v-.276l1.381-8.565V242.5a1.547,1.547,0,0,1,1.658-1.381H39.69c6.907,0,12.432-2.763,13.814-11.051.553-3.315.276-6.354-1.381-8.288a2.83,2.83,0,0,0-1.658-1.381" transform="translate(-16.759 -21.473)" fill="#139ad6"/>
    <path id="Path_726" data-name="Path 726" d="M54.292,216.429c-.276,0-.553-.276-.829-.276a1.015,1.015,0,0,1-.829-.276,14.6,14.6,0,0,0-3.592-.276H38.268a1.015,1.015,0,0,0-.829.276,1.519,1.519,0,0,0-.829,1.381L34.4,231.624v.553a2.37,2.37,0,0,1,1.934-1.658h4.144c8.012,0,14.09-3.315,16.024-12.432a1.015,1.015,0,0,1,.276-.829c-.553-.276-.829-.553-1.381-.553-.829-.276-.829-.276-1.105-.276" transform="translate(-22.52 -18.33)" fill="#232c65"/>
  </g>
</svg>
