<svg xmlns="http://www.w3.org/2000/svg" width="16.795" height="16.795" viewBox="0 0 16.795 16.795">
  <path id="Star" d="M-1118.063,319.16c1.653-.031,3.307-.067,4.96-.087a.359.359,0,0,0,.408-.3c.248-.808.519-1.608.794-2.407.328-.954.669-1.9,1-2.854a.459.459,0,0,1,.441-.361.456.456,0,0,1,.432.374c.383,1.186.759,2.374,1.144,3.559.178.549.4,1.085.546,1.643.084.318.276.363.519.39.069.007.138,0,.208,0q2.474.05,4.947.1a.761.761,0,0,1,.3.057.468.468,0,0,1,.046.8q-.94.757-1.889,1.5-1.23.963-2.469,1.912a.262.262,0,0,0-.107.339q.793,2.705,1.568,5.417a.444.444,0,0,1-.085.515c-.24.218-.362.24-.622.052q-1.205-.874-2.408-1.751c-.666-.485-1.339-.959-1.993-1.46a.37.37,0,0,0-.523.012c-.873.642-1.753,1.276-2.627,1.916-.573.42-1.142.847-1.713,1.271a.405.405,0,0,1-.47.041.436.436,0,0,1-.231-.451,1.646,1.646,0,0,1,.068-.3c.511-1.771,1.021-3.543,1.54-5.312a.263.263,0,0,0-.108-.339q-1.175-.918-2.339-1.852c-.66-.528-1.314-1.064-1.971-1.6a.468.468,0,0,1-.187-.532.442.442,0,0,1,.439-.334c.124-.007.249,0,.374,0Z" transform="translate(1118.899 -313.147)" fill="#ffc400"/>
</svg>
