<svg width="16" height="16" viewBox="0 0 16 16" fill="none" xmlns="http://www.w3.org/2000/svg">
<g clip-path="url(#clip0_104_2)">
<path d="M15.9845 2.14494C15.8861 2.10094 15.7877 2.05954 15.6894 2.01553C15.7929 2.01035 15.8965 2.00518 16 2C15.9948 2.04918 15.9897 2.09576 15.9845 2.14494Z" fill="black"/>
<path d="M13.0257 3.16484L13.0118 3.17722C12.9703 3.21407 12.9307 3.24924 12.8911 3.28651C12.8911 3.24509 12.8937 3.20628 12.8963 3.16486C12.9377 3.16486 12.9843 3.16484 13.0257 3.16484Z" fill="black"/>
<path d="M7.72691 10.1411C7.525 10.418 7.27391 10.5526 6.92963 10.4155C6.67854 10.022 6.54651 10.2472 6.34202 10.4879C5.17457 11.8651 3.88804 13.0739 2.00097 13.3742C1.73176 13.3742 1.46255 13.3742 1.19333 13.3768C0.996602 13.338 0.79987 13.2991 0.603138 13.2603L0.579841 13.2344L0.551366 13.2551C0.481475 13.2059 0.414172 13.1568 0.34428 13.1076L0.357223 13.1102C0.256269 12.9497 0.0957774 12.8021 0.0647145 12.6287C0.00517715 12.3077 0.0155315 11.9712 0 11.6399C0.207086 11.8314 0.416761 12.0204 0.623847 12.2119C0.872351 12.5562 1.17263 12.5692 1.50914 12.3517C1.60233 12.3155 1.69552 12.2818 1.78871 12.2456C3.33668 11.3655 4.37729 9.97281 5.31953 8.54133C5.68452 7.98996 4.75522 7.91748 4.47306 7.57579C4.47824 7.44636 4.48342 7.31434 4.48859 7.18491C4.51707 7.13314 4.54813 7.08137 4.57661 7.03219C4.58955 6.99595 4.5999 6.95712 4.60767 6.92088C4.65167 6.83546 4.69568 6.75003 4.73969 6.66461C4.78887 6.62837 4.83546 6.59213 4.88465 6.55589C5.44896 6.47823 5.78806 7.33506 6.43262 6.93124C6.46627 6.88206 6.49992 6.83028 6.53357 6.7811C7.01274 6.26691 7.41065 5.72433 7.5798 5.10038C7.68493 4.71257 7.70169 4.29333 7.59467 3.82993L7.5923 3.81976C6.01586 3.83012 5.49037 5.12958 4.73969 6.14948C4.70862 6.19867 4.67497 6.25044 4.64391 6.29962C4.62579 6.33069 4.60767 6.36175 4.59473 6.3954C4.56366 6.44717 4.53001 6.49894 4.49895 6.54813C4.45753 6.63355 4.41611 6.71897 4.37729 6.80698L4.3747 6.81475C4.32118 6.9702 4.26521 7.13308 4.21421 7.29105L4.20903 7.3014L4.20056 7.30601C3.89319 7.47529 3.82064 7.75971 3.83627 8.08055L3.83886 8.08833C3.79227 8.43002 3.74826 8.77172 3.70167 9.11341L3.64472 9.12376L3.58777 9.11599C3.50235 9.07457 3.41433 9.03316 3.32891 8.99174C3.19172 8.82349 3.05452 8.65782 2.91992 8.48956C2.88885 8.43779 2.86038 8.38601 2.82932 8.33165V8.32648C2.82414 7.64309 2.81637 6.95971 2.8112 6.27632C2.93804 6.01487 3.06488 5.75602 3.19172 5.49457C3.23572 5.40397 3.27714 5.31078 3.32115 5.22018C3.37809 5.14512 3.43763 5.07005 3.49458 4.99239L3.46869 5.01828C3.5127 4.96392 3.55412 4.90955 3.59812 4.85519L3.59036 4.86555C3.63177 4.81637 3.6706 4.76977 3.71202 4.72059C3.75344 4.67917 3.79486 4.63258 3.83627 4.59116L3.84145 4.58598C3.88287 4.54456 3.92428 4.50315 3.9657 4.46173L3.97088 4.45655C4.0123 4.41513 4.0563 4.3763 4.09772 4.33489C4.1469 4.29347 4.19608 4.25206 4.24527 4.21064L4.23232 4.221C4.28927 4.17958 4.34622 4.13557 4.40576 4.09415C4.44718 4.09674 4.47565 4.07862 4.49377 4.04238C4.5326 4.01132 4.57402 3.98025 4.61285 3.9466C4.66721 3.90777 4.72416 3.87154 4.77852 3.83271C4.82511 3.8353 4.85876 3.81718 4.88206 3.77576C4.9183 3.74729 4.95454 3.71622 4.99078 3.68774L5.00113 3.68257C5.05808 3.64892 5.11503 3.61268 5.17457 3.57903C5.21599 3.58679 5.24705 3.57385 5.26776 3.53761C5.31953 3.50655 5.36871 3.47549 5.42048 3.44442C5.46708 3.45219 5.50073 3.43665 5.52661 3.39782C5.57321 3.36935 5.62239 3.34087 5.66899 3.30981C5.71558 3.32017 5.75182 3.30723 5.78288 3.27098C5.83466 3.24251 5.88902 3.21404 5.94079 3.18557C5.9822 3.19592 6.01586 3.18556 6.04174 3.15191C6.10128 3.12085 6.15823 3.09237 6.21776 3.06131C6.25142 3.07425 6.27989 3.06649 6.3006 3.03542C6.39897 2.99918 6.49733 2.96553 6.5957 2.93188C6.63194 2.95 6.66041 2.94223 6.6863 2.91376C6.87009 2.87752 7.05646 2.83869 7.24025 2.80245C7.43181 2.80245 7.62336 2.80245 7.81492 2.80245C7.95729 2.83869 8.09707 2.87493 8.23944 2.91376L8.26274 2.93965L8.29639 2.92671C8.3637 2.96812 8.431 3.01213 8.49571 3.05355C8.54231 3.09237 8.58373 3.13379 8.63032 3.17262H8.6355C8.67691 3.21662 8.72092 3.25804 8.76234 3.29946L8.73904 3.3357C9.26193 4.61705 8.4983 5.81815 8.4983 7.06584C9.01861 7.53437 9.31112 8.00291 8.4983 8.47403C6.92445 8.43002 7.48358 9.3645 7.72949 10.154L7.72691 10.1411Z" fill="black"/>
<path d="M9.14287 4.07085C9.0911 4.61963 9.16617 5.22277 8.96167 5.70684C8.55527 6.67238 8.85812 6.9364 9.7926 6.80438C9.57645 6.8458 9.35966 6.88657 9.14286 6.92734C8.92607 6.96812 8.70928 7.00889 8.49313 7.0503C8.49313 5.80261 9.25677 4.6041 8.73388 3.32017C8.79859 3.359 8.86072 3.39783 8.92543 3.43666C8.95391 3.48066 8.97979 3.52726 9.00827 3.57126C9.00827 3.61527 9.02121 3.65668 9.0471 3.69033C9.07557 3.74987 9.10404 3.80941 9.13252 3.86895L9.14287 4.07085Z" fill="black"/>
<path d="M2.80603 6.27375C2.81121 6.95713 2.81897 7.64051 2.82415 8.32389C2.40998 7.87348 2.53682 7.31694 2.52388 6.78887C2.61707 6.61802 2.71284 6.44459 2.80603 6.27375Z" fill="black"/>
<path d="M3.18656 5.49199C3.05972 5.75344 2.93287 6.0123 2.80603 6.27375C2.78791 5.94241 2.87851 5.66542 3.18656 5.49199Z" fill="black"/>
<path d="M5.41792 3.43407L5.26519 3.52725C5.31696 3.49619 5.36614 3.46513 5.41792 3.43407Z" fill="black"/>
<path d="M0.623847 12.2119C0.872351 12.5562 1.17263 12.5692 1.50914 12.3517C1.21404 12.3051 0.918945 12.2585 0.623847 12.2119Z" fill="black"/>
<path d="M8.08413 13.5373C8.92801 13.5114 8.86587 12.5588 9.41983 12.2352C9.12732 12.8254 9.19463 13.7858 8.08413 13.5373Z" fill="black"/>
<path d="M9.41983 12.2352C9.45348 11.8547 9.58033 11.5311 9.91943 11.3163C9.75117 11.6243 9.58809 11.9272 9.41983 12.2352Z" fill="black"/>
<path fill-rule="evenodd" clip-rule="evenodd" d="M7.5798 5.10038C7.68802 4.70662 7.70541 4.28063 7.59489 3.80941L7.59467 3.82993C7.70169 4.29333 7.68493 4.71257 7.5798 5.10038Z" fill="black"/>
<path fill-rule="evenodd" clip-rule="evenodd" d="M4.3747 6.81475L4.36952 6.80698L4.20903 7.28327L4.21421 7.29105C4.26521 7.13308 4.32118 6.9702 4.3747 6.81475ZM4.38563 7.4789C4.41386 7.51018 4.44475 7.54415 4.47306 7.57579Z" fill="black"/>
<path fill-rule="evenodd" clip-rule="evenodd" d="M4.20644 7.29363C3.88804 7.46448 3.81556 7.7518 3.83627 8.08055C3.82064 7.75971 3.89319 7.47529 4.20056 7.30601L4.20644 7.29363Z" fill="black"/>
<path fill-rule="evenodd" clip-rule="evenodd" d="M7.41359 12.7593C7.45592 13.1327 7.49837 13.5072 8.08413 13.5373L8.08931 13.5476C8.59175 13.5322 8.77301 13.1883 8.95436 12.8442C9.0776 12.6104 9.20088 12.3765 9.42502 12.2456C9.45867 11.8651 9.59069 11.5389 9.9272 11.324C10.061 11.0662 10.194 10.808 10.3269 10.5498C10.6464 9.92919 10.9657 9.30904 11.2966 8.69663C11.3291 8.63618 11.3647 8.58197 11.4028 8.53354L12.6789 6.57401L13.1603 5.89062L13.2225 5.82332L13.2748 5.76641L13.2846 5.75601C13.3053 5.72883 13.3254 5.70101 13.3454 5.67318C13.3655 5.64535 13.3855 5.61752 13.4063 5.59034L13.3804 5.6214C13.4075 5.57869 13.4347 5.53663 13.4619 5.49456C13.4891 5.4525 13.5163 5.41044 13.5434 5.36773L13.6677 5.21241L13.6444 5.23312L14.056 4.72058C14.1854 4.54974 14.3174 4.3763 14.4494 4.20545L14.5608 4.07344L14.694 3.93306L14.685 3.94401L14.7057 3.92071L14.694 3.93306C14.7144 3.90824 14.7353 3.88341 14.7562 3.85859C14.7801 3.83011 14.8041 3.80164 14.8274 3.77316L14.7963 3.79905L15.9845 2.14494L15.6946 2.0207C15.5185 2.01811 15.3425 2.01552 15.1665 2.01552C15.0914 2.03234 15.0157 2.04852 14.94 2.0647C14.8643 2.08088 14.7886 2.09706 14.7135 2.11388C14.6798 2.14495 14.6436 2.15271 14.5996 2.13977L14.3226 2.24849L14.2967 2.27696L14.2579 2.2692L14.056 2.37791L14.043 2.3831C14.0029 2.40898 13.9628 2.43551 13.9227 2.46205C13.8825 2.48858 13.8424 2.51511 13.8023 2.541L13.823 2.52029C13.7712 2.56171 13.7195 2.60053 13.6677 2.63936L13.6573 2.64454C13.6392 2.66007 13.6211 2.67495 13.603 2.68984C13.5849 2.70472 13.5667 2.71961 13.5486 2.73514C13.5357 2.77397 13.5098 2.78951 13.471 2.78951L13.2958 2.91499L13.3053 2.90599L13.2794 2.9267L13.2958 2.91499C13.2742 2.93528 13.2522 2.95558 13.2302 2.97588C13.205 2.99918 13.1798 3.02247 13.1552 3.04577L13.1655 3.03801C13.1422 3.05872 13.1189 3.08007 13.0956 3.10143C13.0723 3.12278 13.049 3.14414 13.0257 3.16484L13.0118 3.17722C12.9703 3.21407 12.9307 3.24924 12.8911 3.28651L12.8859 3.29168C12.8445 3.33051 12.8031 3.37193 12.7617 3.41335L12.7565 3.42111C12.7177 3.46253 12.6763 3.50395 12.6349 3.54537L12.6297 3.55054C12.609 3.57125 12.5876 3.59325 12.5663 3.61525C12.5449 3.63726 12.5235 3.65926 12.5028 3.67997L12.3786 3.81199L12.2543 3.94401C12.2103 3.99578 12.1663 4.04496 12.1223 4.09414M12.1223 4.09414C12.1052 4.11713 12.089 4.13877 12.0718 4.16145C12.0498 4.19057 12.0278 4.21969 12.0058 4.24946C12.0032 4.29347 11.9825 4.32194 11.9411 4.33747C11.9269 4.3543 11.912 4.37047 11.8971 4.38665C11.8822 4.40283 11.8673 4.41901 11.8531 4.43584L11.8402 4.45396L11.7314 4.59374C11.712 4.62221 11.6926 4.65004 11.6732 4.67787C11.6538 4.7057 11.6344 4.73353 11.615 4.762C11.6175 4.80342 11.5994 4.83448 11.5606 4.85519L11.47 4.97685C11.4493 5.0105 11.4292 5.04415 11.4092 5.0778C11.3891 5.11146 11.369 5.14511 11.3483 5.17876L11.3509 5.215L11.3224 5.23571L11.2215 5.3962C11.2241 5.44279 11.206 5.47644 11.1645 5.49974C11.149 5.51656 11.1341 5.53404 11.1192 5.55151C11.1044 5.56899 11.0895 5.58646 11.0739 5.60329L11.0662 5.61623C11.0135 5.70759 10.9648 5.80326 10.9162 5.89895C10.6849 6.3536 10.4534 6.80866 9.7926 6.80438C9.57645 6.8458 9.35966 6.88657 9.14286 6.92734C8.92607 6.96812 8.70928 7.00889 8.49313 7.0503C9.01343 7.51884 9.30336 7.98737 8.49313 8.45849C8.78046 8.5232 9.06521 8.58533 9.34995 8.64745L8.10484 10.8012C7.98059 10.5811 7.85375 10.3611 7.72691 10.1411C7.525 10.418 7.27391 10.5526 6.92963 10.4155C7.06682 11.0626 7.20143 11.7072 7.33604 12.3543C7.38155 12.4766 7.39756 12.6179 7.41359 12.7593" fill="black"/>
</g>
<defs>
<clipPath id="clip0_104_2">
<rect width="16" height="16" fill="white"/>
</clipPath>
</defs>
</svg>
